<svg width="336" height="142" viewBox="0 0 336 142" fill="none" xmlns="http://www.w3.org/2000/svg">
<mask id="mask0_184_359" style="mask-type:alpha" maskUnits="userSpaceOnUse" x="0" y="0" width="336" height="142">
<rect x="0.0465088" y="0.17395" width="335" height="141.578" rx="11.7981" fill="#19AE67"/>
</mask>
<g mask="url(#mask0_184_359)">
<rect x="0.0465088" y="0.17395" width="335" height="141.578" rx="11.7981" fill="#FFB039"/>
<circle opacity="0.2" cx="53.6883" cy="146.562" r="24.2714" fill="#E76AAD"/>
<ellipse opacity="0.2" cx="235.222" cy="159.439" rx="46.8483" ry="43.0472" fill="#FBFF2E"/>
<path d="M35.7057 33.4114L39.3477 43.2846H39.495L39.3477 37.6007V33.4114H42.4843V46.8739H38.074L34.2953 36.7797H34.1584L34.3058 42.5899V46.8739H31.1691V33.4114H35.7057ZM50.3122 47.1371C48.4316 47.1371 47.0422 46.7196 46.144 45.8845C45.2458 45.0424 44.7967 43.8179 44.7967 42.211V41.1374C44.7967 39.5515 45.2178 38.3375 46.0598 37.4955C46.9019 36.6464 48.1264 36.2218 49.7333 36.2218C50.814 36.2218 51.7122 36.4078 52.4279 36.7797C53.1507 37.1446 53.691 37.6674 54.0489 38.348C54.4138 39.0287 54.5962 39.8462 54.5962 40.8006V41.1479C54.5962 41.4146 54.5822 41.6882 54.5541 41.9689C54.5331 42.2426 54.5015 42.4987 54.4594 42.7373H51.5543C51.5823 42.3303 51.5999 41.9479 51.6069 41.59C51.6139 41.2251 51.6174 40.8953 51.6174 40.6006C51.6174 40.1725 51.5508 39.8146 51.4174 39.5269C51.2841 39.2322 51.0771 39.0077 50.7964 38.8533C50.5228 38.6989 50.1684 38.6217 49.7333 38.6217C49.0877 38.6217 48.6141 38.7971 48.3123 39.148C48.0176 39.4918 47.8703 39.983 47.8703 40.6216V41.5689L47.8913 41.9163V42.6531C47.8913 42.9197 47.9334 43.1724 48.0176 43.4109C48.1088 43.6495 48.2632 43.86 48.4807 44.0425C48.7053 44.2179 49.0105 44.3583 49.3965 44.4635C49.7895 44.5618 50.2877 44.6109 50.8912 44.6109C51.5297 44.6109 52.1437 44.5512 52.7332 44.4319C53.3226 44.3056 53.8875 44.1372 54.4278 43.9267L54.1647 46.3476C53.6875 46.5932 53.1226 46.7862 52.47 46.9266C51.8174 47.0669 51.0982 47.1371 50.3122 47.1371ZM46.5019 42.7373V40.7479H53.8068V42.7373H46.5019ZM57.9306 46.8739L55.857 36.5271H59.12L60.4042 44.6004H60.5936L61.8567 36.7797H65.7934L67.0775 44.6004H67.2565L68.5511 36.5271H71.7825L69.709 46.8739H65.1302L64.0882 40.2848L63.9093 39.1269H63.7619L63.5724 40.2848L62.5304 46.8739H57.9306ZM78.0778 46.8739L78.4988 33.422H83.0881L85.309 41.4426H85.4458L87.6668 33.422H92.256L92.6771 46.8739H89.4877L89.393 42.4636L89.2983 37.0955H89.1404L86.8352 45.2951H83.9091L81.6039 37.0955H81.4355L81.3513 42.4742L81.2671 46.8739H78.0778ZM101.118 46.8739L101.213 44.2846L101.139 44.1267V40.8953L101.118 40.4743C101.118 39.8988 100.95 39.4743 100.613 39.2006C100.276 38.927 99.7111 38.7901 98.9182 38.7901C98.2235 38.7901 97.5639 38.8778 96.9394 39.0533C96.3148 39.2287 95.7254 39.4287 95.171 39.6532L95.4447 37.1586C95.7745 37.0042 96.1429 36.8604 96.5499 36.7271C96.9639 36.5867 97.42 36.4745 97.9182 36.3902C98.4165 36.306 98.9498 36.2639 99.5182 36.2639C100.423 36.2639 101.181 36.3692 101.792 36.5797C102.402 36.7902 102.89 37.0885 103.255 37.4744C103.62 37.8603 103.883 38.3235 104.044 38.8638C104.206 39.3971 104.286 39.9866 104.286 40.6321V46.8739H101.118ZM97.8235 47.116C96.792 47.116 96.0096 46.8564 95.4763 46.3371C94.943 45.8178 94.6763 45.0775 94.6763 44.1162V43.832C94.6763 42.8145 94.9886 42.0636 95.6131 41.5795C96.2446 41.0883 97.2446 40.7549 98.613 40.5795L101.392 40.2111L101.581 42.1479L99.1182 42.5057C98.62 42.5689 98.2691 42.6847 98.0656 42.8531C97.8621 43.0215 97.7604 43.2706 97.7604 43.6004V43.6741C97.7604 43.9899 97.8621 44.2425 98.0656 44.4319C98.2691 44.6144 98.5954 44.7056 99.0445 44.7056C99.4375 44.7056 99.7743 44.646 100.055 44.5267C100.343 44.4074 100.578 44.253 100.76 44.0635C100.943 43.8671 101.079 43.6495 101.171 43.4109L101.623 44.7161H101.097C100.985 45.1652 100.809 45.5722 100.571 45.9371C100.339 46.302 100.002 46.5897 99.5603 46.8003C99.1182 47.0108 98.5393 47.116 97.8235 47.116ZM111.157 47.1476C109.515 47.1476 108.297 46.716 107.504 45.8529C106.712 44.9898 106.315 43.7758 106.315 42.211V41.1374C106.315 39.6006 106.712 38.4007 107.504 37.5376C108.297 36.6744 109.511 36.2429 111.146 36.2429C111.567 36.2429 111.96 36.2745 112.325 36.3376C112.69 36.3938 113.027 36.4745 113.336 36.5797C113.644 36.685 113.915 36.7972 114.146 36.9165L114.409 39.5796C114.066 39.3831 113.687 39.2217 113.273 39.0954C112.859 38.962 112.392 38.8954 111.873 38.8954C111.059 38.8954 110.469 39.0919 110.104 39.4848C109.739 39.8778 109.557 40.4462 109.557 41.19V42.0847C109.557 42.8426 109.75 43.425 110.136 43.832C110.522 44.239 111.125 44.4425 111.946 44.4425C112.459 44.4425 112.918 44.3828 113.325 44.2635C113.739 44.1372 114.132 43.9758 114.504 43.7793L114.251 46.4529C113.887 46.6494 113.437 46.8143 112.904 46.9476C112.371 47.0809 111.788 47.1476 111.157 47.1476ZM122.857 47.116C122.239 47.116 121.72 47.0143 121.299 46.8108C120.878 46.6073 120.541 46.3196 120.288 45.9477C120.036 45.5687 119.857 45.1302 119.752 44.6319H118.92L119.688 42.4636C119.702 42.8917 119.787 43.2531 119.941 43.5478C120.095 43.8425 120.316 44.0706 120.604 44.232C120.892 44.3863 121.229 44.4635 121.615 44.4635C122.204 44.4635 122.65 44.2916 122.951 43.9478C123.253 43.5969 123.404 43.0741 123.404 42.3794V40.9163C123.404 40.2286 123.253 39.7129 122.951 39.369C122.657 39.0252 122.215 38.8533 121.625 38.8533C121.295 38.8533 120.994 38.9164 120.72 39.0427C120.453 39.1691 120.225 39.3375 120.036 39.548C119.853 39.7515 119.72 39.9866 119.636 40.2532L118.909 38.7691H119.794C119.899 38.3059 120.071 37.8884 120.309 37.5165C120.548 37.1376 120.881 36.8393 121.309 36.6218C121.744 36.3973 122.295 36.285 122.962 36.285C124.169 36.285 125.081 36.6815 125.699 37.4744C126.323 38.2603 126.635 39.4427 126.635 41.0216V42.2847C126.635 43.8776 126.323 45.081 125.699 45.895C125.074 46.709 124.127 47.116 122.857 47.116ZM116.531 46.8739V32.9694H119.73V36.0639L119.678 39.3796L119.688 39.6638V43.632L119.636 44.253L119.73 46.8739H116.531ZM133.559 47.1687C131.889 47.1687 130.626 46.7546 129.77 45.9266C128.921 45.0916 128.496 43.9197 128.496 42.411V41.0532C128.496 39.5234 128.925 38.3375 129.781 37.4955C130.637 36.6464 131.896 36.2218 133.559 36.2218C135.222 36.2218 136.479 36.6464 137.328 37.4955C138.184 38.3375 138.612 39.5234 138.612 41.0532V42.411C138.612 43.9197 138.187 45.0916 137.338 45.9266C136.489 46.7546 135.229 47.1687 133.559 47.1687ZM133.559 44.6319C134.156 44.6319 134.608 44.453 134.917 44.0951C135.233 43.7302 135.391 43.2145 135.391 42.5478V40.9163C135.391 40.2146 135.233 39.6813 134.917 39.3164C134.608 38.9515 134.156 38.7691 133.559 38.7691C132.963 38.7691 132.507 38.9515 132.191 39.3164C131.882 39.6813 131.728 40.2146 131.728 40.9163V42.5478C131.728 43.2145 131.882 43.7302 132.191 44.0951C132.507 44.453 132.963 44.6319 133.559 44.6319ZM145.493 47.1687C143.823 47.1687 142.56 46.7546 141.704 45.9266C140.855 45.0916 140.43 43.9197 140.43 42.411V41.0532C140.43 39.5234 140.858 38.3375 141.714 37.4955C142.57 36.6464 143.83 36.2218 145.493 36.2218C147.156 36.2218 148.412 36.6464 149.261 37.4955C150.117 38.3375 150.545 39.5234 150.545 41.0532V42.411C150.545 43.9197 150.121 45.0916 149.272 45.9266C148.423 46.7546 147.163 47.1687 145.493 47.1687ZM145.493 44.6319C146.089 44.6319 146.542 44.453 146.851 44.0951C147.167 43.7302 147.324 43.2145 147.324 42.5478V40.9163C147.324 40.2146 147.167 39.6813 146.851 39.3164C146.542 38.9515 146.089 38.7691 145.493 38.7691C144.897 38.7691 144.44 38.9515 144.125 39.3164C143.816 39.6813 143.662 40.2146 143.662 40.9163V42.5478C143.662 43.2145 143.816 43.7302 144.125 44.0951C144.44 44.453 144.897 44.6319 145.493 44.6319ZM159.332 46.8739L156.279 42.411H155.437V40.5164H156.279L159.248 36.5271H162.942L159.005 41.6637V41.0532L163.089 46.8739H159.332ZM152.743 46.8739V32.9694H155.942V46.8739H152.743ZM33.3795 68.0531V65.39H36.5688C37.2565 65.39 37.7512 65.2392 38.053 64.9374C38.3617 64.6287 38.5161 64.1691 38.5161 63.5586V62.906C38.5161 62.2884 38.3652 61.8288 38.0635 61.5271C37.7618 61.2253 37.2671 61.0745 36.5794 61.0745H33.369V58.422H36.8215C38.5337 58.422 39.7862 58.8009 40.5792 59.5588C41.3791 60.3166 41.7791 61.4008 41.7791 62.8112V63.6638C41.7791 65.0813 41.3791 66.169 40.5792 66.9268C39.7862 67.6777 38.5372 68.0531 36.832 68.0531H33.3795ZM31.1691 71.8739V58.422H34.39V66.1374L34.4111 67.632V71.8739H31.1691ZM47.0382 66.0637L46.1541 64.1059H46.9119C47.0803 63.2498 47.4066 62.5797 47.8908 62.0955C48.382 61.6043 49.0732 61.3587 49.9644 61.3587C50.1188 61.3587 50.2591 61.3692 50.3854 61.3902C50.5187 61.4113 50.6451 61.4359 50.7644 61.4639L50.9222 64.7164C50.7749 64.6743 50.603 64.6462 50.4065 64.6322C50.21 64.6111 50.01 64.6006 49.8065 64.6006C49.1188 64.6006 48.5399 64.7304 48.0697 64.9901C47.5996 65.2427 47.2558 65.6006 47.0382 66.0637ZM43.8805 71.8739V61.5271H46.9119L46.7751 64.8322L47.1014 64.8743V71.8739H43.8805ZM57.2088 72.1687C55.5387 72.1687 54.2756 71.7546 53.4195 70.9266C52.5704 70.0916 52.1459 68.9197 52.1459 67.411V66.0532C52.1459 64.5234 52.5739 63.3375 53.43 62.4955C54.2861 61.6464 55.5457 61.2218 57.2088 61.2218C58.8718 61.2218 60.1279 61.6464 60.977 62.4955C61.8331 63.3375 62.2611 64.5234 62.2611 66.0532V67.411C62.2611 68.9197 61.8366 70.0916 60.9875 70.9266C60.1384 71.7546 58.8789 72.1687 57.2088 72.1687ZM57.2088 69.6319C57.8052 69.6319 58.2578 69.453 58.5666 69.0951C58.8824 68.7302 59.0403 68.2145 59.0403 67.5478V65.9163C59.0403 65.2146 58.8824 64.6813 58.5666 64.3164C58.2578 63.9515 57.8052 63.7691 57.2088 63.7691C56.6123 63.7691 56.1562 63.9515 55.8404 64.3164C55.5317 64.6813 55.3773 65.2146 55.3773 65.9163V67.5478C55.3773 68.2145 55.5317 68.7302 55.8404 69.0951C56.1562 69.453 56.6123 69.6319 57.2088 69.6319ZM68.9911 71.8739L69.4121 58.422H74.0013L76.2223 66.4426H76.3591L78.5801 58.422H83.1693L83.5903 71.8739H80.401L80.3063 67.4636L80.2116 62.0955H80.0537L77.7485 70.2951H74.8224L72.5172 62.0955H72.3488L72.2646 67.4742L72.1804 71.8739H68.9911ZM88.3564 71.8739V61.7376H88.2196L85.4618 63.0007L85.546 59.9061L88.7458 58.422H91.6299V71.8739H88.3564ZM98.3559 71.8739V68.9057L101.65 66.0426C102.205 65.5585 102.661 65.1339 103.019 64.769C103.384 64.4041 103.657 64.0568 103.84 63.727C104.022 63.3972 104.113 63.0498 104.113 62.6849V62.5902C104.113 62.2604 104.043 61.9762 103.903 61.7376C103.763 61.492 103.528 61.3025 103.198 61.1692C102.875 61.0359 102.443 60.9692 101.903 60.9692C101.236 60.9692 100.608 61.0675 100.019 61.2639C99.4295 61.4534 98.9067 61.6639 98.4506 61.8955L98.7348 59.0535C99.0366 58.8921 99.3839 58.7448 99.7769 58.6114C100.177 58.4711 100.622 58.3588 101.114 58.2746C101.612 58.1904 102.152 58.1483 102.735 58.1483C104.306 58.1483 105.489 58.4992 106.282 59.2009C107.075 59.9026 107.471 60.885 107.471 62.1481V62.2955C107.471 62.9551 107.369 63.548 107.166 64.0743C106.962 64.6006 106.647 65.1129 106.219 65.6111C105.798 66.1023 105.254 66.6391 104.587 67.2215L102.598 68.9899V69.5898L101.187 69.1056H107.608V71.8739H98.3559ZM114.949 72.1687C113.125 72.1687 111.742 71.6845 110.802 70.7161C109.869 69.7477 109.402 68.3267 109.402 66.4531V63.8322C109.402 61.9727 109.869 60.5587 110.802 59.5903C111.735 58.622 113.117 58.1378 114.949 58.1378C116.78 58.1378 118.163 58.622 119.096 59.5903C120.036 60.5587 120.507 61.9727 120.507 63.8322V66.4531C120.507 68.3267 120.036 69.7477 119.096 70.7161C118.163 71.6845 116.78 72.1687 114.949 72.1687ZM114.949 69.453C115.714 69.453 116.272 69.2109 116.623 68.7267C116.973 68.2425 117.149 67.5338 117.149 66.6005V63.7059C117.149 62.7656 116.973 62.0569 116.623 61.5797C116.272 61.0955 115.714 60.8534 114.949 60.8534C114.184 60.8534 113.626 61.0955 113.275 61.5797C112.932 62.0569 112.76 62.7656 112.76 63.7059V66.6005C112.76 67.5338 112.935 68.2425 113.286 68.7267C113.644 69.2109 114.198 69.453 114.949 69.453ZM122.223 71.8739V68.9057L125.518 66.0426C126.072 65.5585 126.528 65.1339 126.886 64.769C127.251 64.4041 127.525 64.0568 127.707 63.727C127.889 63.3972 127.981 63.0498 127.981 62.6849V62.5902C127.981 62.2604 127.911 61.9762 127.77 61.7376C127.63 61.492 127.395 61.3025 127.065 61.1692C126.742 61.0359 126.311 60.9692 125.77 60.9692C125.104 60.9692 124.476 61.0675 123.886 61.2639C123.297 61.4534 122.774 61.6639 122.318 61.8955L122.602 59.0535C122.904 58.8921 123.251 58.7448 123.644 58.6114C124.044 58.4711 124.49 58.3588 124.981 58.2746C125.479 58.1904 126.019 58.1483 126.602 58.1483C128.174 58.1483 129.356 58.4992 130.149 59.2009C130.942 59.9026 131.338 60.885 131.338 62.1481V62.2955C131.338 62.9551 131.237 63.548 131.033 64.0743C130.83 64.6006 130.514 65.1129 130.086 65.6111C129.665 66.1023 129.121 66.6391 128.454 67.2215L126.465 68.9899V69.5898L125.055 69.1056H131.475V71.8739H122.223ZM133.232 71.8739V68.9057L136.526 66.0426C137.081 65.5585 137.537 65.1339 137.895 64.769C138.259 64.4041 138.533 64.0568 138.716 63.727C138.898 63.3972 138.989 63.0498 138.989 62.6849V62.5902C138.989 62.2604 138.919 61.9762 138.779 61.7376C138.638 61.492 138.403 61.3025 138.073 61.1692C137.751 61.0359 137.319 60.9692 136.779 60.9692C136.112 60.9692 135.484 61.0675 134.895 61.2639C134.305 61.4534 133.782 61.6639 133.326 61.8955L133.611 59.0535C133.912 58.8921 134.26 58.7448 134.653 58.6114C135.053 58.4711 135.498 58.3588 135.989 58.2746C136.488 58.1904 137.028 58.1483 137.61 58.1483C139.182 58.1483 140.365 58.4992 141.158 59.2009C141.95 59.9026 142.347 60.885 142.347 62.1481V62.2955C142.347 62.9551 142.245 63.548 142.042 64.0743C141.838 64.6006 141.522 65.1129 141.094 65.6111C140.673 66.1023 140.13 66.6391 139.463 67.2215L137.474 68.9899V69.5898L136.063 69.1056H142.484V71.8739H133.232Z" fill="white"/>
<path d="M29.8818 88.7449H104.492V109.627H29.8818V88.7449Z" fill="#E33B52"/>
<path d="M46.288 102.542C45.7712 102.542 45.3394 102.429 44.9926 102.202C44.6457 101.972 44.3855 101.641 44.2121 101.209C44.0387 100.778 43.952 100.259 43.952 99.6538V98.6025C43.952 97.5655 44.2351 96.7815 44.8014 96.2506C45.3677 95.7161 46.1942 95.4489 47.2808 95.4489C47.5994 95.4489 47.8967 95.4701 48.1727 95.5126C48.4524 95.5515 48.7072 95.6046 48.9373 95.6719C49.1709 95.7391 49.3762 95.8152 49.5531 95.9002L49.7124 97.4982C49.4363 97.3885 49.1319 97.2912 48.7992 97.2062C48.4701 97.1213 48.0931 97.0788 47.6684 97.0788C47.0561 97.0788 46.6101 97.208 46.3305 97.4664C46.0509 97.7248 45.911 98.1459 45.911 98.73V99.675C45.911 100.068 46.0031 100.372 46.1871 100.588C46.3747 100.804 46.672 100.912 47.0791 100.912C47.249 100.912 47.3958 100.891 47.5197 100.848C47.6471 100.802 47.7533 100.742 47.8383 100.668C47.9268 100.593 47.9993 100.512 48.0559 100.424V99.2556L48.2949 99.7918L47.0791 99.8024V98.3424H49.8876V101.231H48.0135C47.9604 101.485 47.8719 101.712 47.748 101.91C47.6277 102.105 47.4507 102.259 47.2171 102.372C46.987 102.485 46.6773 102.542 46.288 102.542ZM48.0825 100.997H49.8876V102.388H48.0294L48.0825 100.997ZM51.1578 102.388V95.6029H53.032V102.388H51.1578ZM51.7153 102.388V100.79H56.0847V102.388H51.7153ZM52.2621 99.7122V98.1884H55.952V99.7122H52.2621ZM51.7153 97.185V95.6029H56.0369V97.185H51.7153ZM58.7474 102.388V95.9798H60.6746V102.388H58.7474ZM56.9263 97.2009V95.6029H62.4903V97.2009H56.9263ZM68.3691 95.5976L69.9194 100.291H69.9937L69.9088 97.4558V95.5976H71.7245V102.388H69.208L67.5834 97.5566H67.509L67.594 100.434V102.388H65.773V95.5976H68.3691ZM75.9194 102.563C74.8894 102.563 74.1196 102.314 73.6099 101.815C73.1003 101.312 72.8454 100.586 72.8454 99.6378V98.438C72.8454 97.4858 73.102 96.7496 73.6152 96.2293C74.1285 95.709 74.8965 95.4489 75.9194 95.4489C76.9423 95.4489 77.7104 95.709 78.2236 96.2293C78.7368 96.7496 78.9934 97.4858 78.9934 98.438V99.6378C78.9934 100.586 78.7386 101.312 78.2289 101.815C77.7192 102.314 76.9494 102.563 75.9194 102.563ZM75.9194 100.981C76.2981 100.981 76.5778 100.873 76.7583 100.657C76.9423 100.438 77.0344 100.13 77.0344 99.7334V98.3371C77.0344 97.9123 76.9423 97.5867 76.7583 97.3602C76.5778 97.1337 76.2981 97.0204 75.9194 97.0204C75.5407 97.0204 75.2593 97.1337 75.0753 97.3602C74.8948 97.5867 74.8045 97.9123 74.8045 98.3371V99.7334C74.8045 100.13 74.8948 100.438 75.0753 100.657C75.2593 100.873 75.5407 100.981 75.9194 100.981ZM80.7372 102.388L79.6169 95.6029H81.5601L82.1122 100.232L82.1759 100.785H82.2715L82.3511 100.232L82.9829 95.7462H85.2234L85.8499 100.232L85.9295 100.785H86.0251L86.0941 100.238L86.6569 95.6029H88.5841L87.4745 102.388H84.804L84.2518 98.1566L84.1456 97.3283H84.0607L83.9492 98.1566L83.4077 102.388H80.7372Z" fill="#FFFDFD"/>
<path d="M205.353 35.0459L194.832 24.5246" stroke="white" stroke-width="1.32787" stroke-linecap="round"/>
<path d="M218.632 35.0459L208.11 24.5246" stroke="white" stroke-width="1.32787" stroke-linecap="round"/>
<g opacity="0.2">
<path opacity="0.7" d="M292.524 35.5656L303.045 25.0443" stroke="white" stroke-width="1.32787" stroke-linecap="round"/>
<path opacity="0.7" d="M279.245 35.5656L289.766 25.0443" stroke="white" stroke-width="1.32787" stroke-linecap="round"/>
</g>
<circle cx="277.593" cy="84.0801" r="1.79003" fill="white"/>
<circle cx="192.682" cy="84.459" r="1.76972" fill="#FBFF2E"/>
<circle opacity="0.4" cx="274.42" cy="116.595" r="1.38317" stroke="#F3F7F9" stroke-width="1.17981"/>
<circle cx="104.372" cy="117.658" r="1.38317" stroke="#F3F7F9" stroke-width="1.17981"/>
</g>
<rect x="167.702" y="26" width="164.298" height="92.504"/>
</svg>
