<svg width="99" height="18" viewBox="0 0 99 18" fill="none" xmlns="http://www.w3.org/2000/svg">
<path d="M30.379 11.295H27.035L26.419 13H25.363L28.135 5.377H29.29L32.051 13H30.995L30.379 11.295ZM30.093 10.481L28.707 6.609L27.321 10.481H30.093ZM34.3701 8.083C34.5681 7.73833 34.8614 7.45233 35.2501 7.225C35.6461 6.99033 36.1044 6.873 36.6251 6.873C37.1604 6.873 37.6444 7.00133 38.0771 7.258C38.5171 7.51467 38.8618 7.87767 39.1111 8.347C39.3604 8.809 39.4851 9.348 39.4851 9.964C39.4851 10.5727 39.3604 11.1153 39.1111 11.592C38.8618 12.0687 38.5171 12.439 38.0771 12.703C37.6444 12.967 37.1604 13.099 36.6251 13.099C36.1118 13.099 35.6571 12.9853 35.2611 12.758C34.8724 12.5233 34.5754 12.2337 34.3701 11.889V15.86H33.3691V6.972H34.3701V8.083ZM38.4621 9.964C38.4621 9.50933 38.3704 9.11333 38.1871 8.776C38.0038 8.43867 37.7544 8.182 37.4391 8.006C37.1311 7.83 36.7901 7.742 36.4161 7.742C36.0494 7.742 35.7084 7.83367 35.3931 8.017C35.0851 8.193 34.8358 8.45333 34.6451 8.798C34.4618 9.13533 34.3701 9.52767 34.3701 9.975C34.3701 10.4297 34.4618 10.8293 34.6451 11.174C34.8358 11.5113 35.0851 11.7717 35.3931 11.955C35.7084 12.131 36.0494 12.219 36.4161 12.219C36.7901 12.219 37.1311 12.131 37.4391 11.955C37.7544 11.7717 38.0038 11.5113 38.1871 11.174C38.3704 10.8293 38.4621 10.426 38.4621 9.964ZM41.9137 8.083C42.1117 7.73833 42.405 7.45233 42.7937 7.225C43.1897 6.99033 43.648 6.873 44.1687 6.873C44.704 6.873 45.188 7.00133 45.6207 7.258C46.0607 7.51467 46.4054 7.87767 46.6547 8.347C46.904 8.809 47.0287 9.348 47.0287 9.964C47.0287 10.5727 46.904 11.1153 46.6547 11.592C46.4054 12.0687 46.0607 12.439 45.6207 12.703C45.188 12.967 44.704 13.099 44.1687 13.099C43.6554 13.099 43.2007 12.9853 42.8047 12.758C42.416 12.5233 42.119 12.2337 41.9137 11.889V15.86H40.9127V6.972H41.9137V8.083ZM46.0057 9.964C46.0057 9.50933 45.914 9.11333 45.7307 8.776C45.5474 8.43867 45.298 8.182 44.9827 8.006C44.6747 7.83 44.3337 7.742 43.9597 7.742C43.593 7.742 43.252 7.83367 42.9367 8.017C42.6287 8.193 42.3794 8.45333 42.1887 8.798C42.0054 9.13533 41.9137 9.52767 41.9137 9.975C41.9137 10.4297 42.0054 10.8293 42.1887 11.174C42.3794 11.5113 42.6287 11.7717 42.9367 11.955C43.252 12.131 43.593 12.219 43.9597 12.219C44.3337 12.219 44.6747 12.131 44.9827 11.955C45.298 11.7717 45.5474 11.5113 45.7307 11.174C45.914 10.8293 46.0057 10.426 46.0057 9.964ZM49.4573 4.86V13H48.4563V4.86H49.4573ZM56.7733 9.755C56.7733 9.94567 56.7623 10.1473 56.7403 10.36H51.9223C51.959 10.954 52.1607 11.4197 52.5273 11.757C52.9013 12.087 53.3523 12.252 53.8803 12.252C54.313 12.252 54.6723 12.153 54.9583 11.955C55.2517 11.7497 55.457 11.4783 55.5743 11.141H56.6523C56.491 11.7203 56.1683 12.1933 55.6843 12.56C55.2003 12.9193 54.599 13.099 53.8803 13.099C53.3083 13.099 52.795 12.9707 52.3403 12.714C51.893 12.4573 51.541 12.0943 51.2843 11.625C51.0277 11.1483 50.8993 10.5983 50.8993 9.975C50.8993 9.35167 51.024 8.80533 51.2733 8.336C51.5227 7.86667 51.871 7.50733 52.3183 7.258C52.773 7.00133 53.2937 6.873 53.8803 6.873C54.4523 6.873 54.9583 6.99767 55.3983 7.247C55.8383 7.49633 56.1757 7.841 56.4103 8.281C56.6523 8.71367 56.7733 9.205 56.7733 9.755ZM55.7393 9.546C55.7393 9.16467 55.655 8.83833 55.4863 8.567C55.3177 8.28833 55.0867 8.07933 54.7933 7.94C54.5073 7.79333 54.1883 7.72 53.8363 7.72C53.3303 7.72 52.8977 7.88133 52.5383 8.204C52.1863 8.52667 51.9847 8.974 51.9333 9.546H55.7393ZM60.3386 13.099C59.8766 13.099 59.4623 13.022 59.0956 12.868C58.7289 12.7067 58.4393 12.4867 58.2266 12.208C58.0139 11.922 57.8966 11.5957 57.8746 11.229H58.9086C58.9379 11.5297 59.0773 11.7753 59.3266 11.966C59.5833 12.1567 59.9169 12.252 60.3276 12.252C60.7089 12.252 61.0096 12.1677 61.2296 11.999C61.4496 11.8303 61.5596 11.6177 61.5596 11.361C61.5596 11.097 61.4423 10.9027 61.2076 10.778C60.9729 10.646 60.6099 10.5177 60.1186 10.393C59.6713 10.2757 59.3046 10.1583 59.0186 10.041C58.7399 9.91633 58.4979 9.73667 58.2926 9.502C58.0946 9.26 57.9956 8.94467 57.9956 8.556C57.9956 8.248 58.0873 7.96567 58.2706 7.709C58.4539 7.45233 58.7143 7.25067 59.0516 7.104C59.3889 6.95 59.7739 6.873 60.2066 6.873C60.8739 6.873 61.4129 7.04167 61.8236 7.379C62.2343 7.71633 62.4543 8.17833 62.4836 8.765H61.4826C61.4606 8.44967 61.3323 8.19667 61.0976 8.006C60.8703 7.81533 60.5623 7.72 60.1736 7.72C59.8143 7.72 59.5283 7.797 59.3156 7.951C59.1029 8.105 58.9966 8.30667 58.9966 8.556C58.9966 8.754 59.0589 8.919 59.1836 9.051C59.3156 9.17567 59.4769 9.27833 59.6676 9.359C59.8656 9.43233 60.1369 9.51667 60.4816 9.612C60.9143 9.72933 61.2663 9.84667 61.5376 9.964C61.809 10.074 62.04 10.2427 62.2306 10.47C62.4286 10.6973 62.5313 10.9943 62.5386 11.361C62.5386 11.691 62.4469 11.988 62.2636 12.252C62.0803 12.516 61.82 12.725 61.4826 12.879C61.1526 13.0257 60.7713 13.099 60.3386 13.099ZM65.2827 7.797V11.35C65.2827 11.6433 65.345 11.8523 65.4697 11.977C65.5944 12.0943 65.8107 12.153 66.1187 12.153H66.8557V13H65.9537C65.3964 13 64.9784 12.8717 64.6997 12.615C64.421 12.3583 64.2817 11.9367 64.2817 11.35V7.797H63.5007V6.972H64.2817V5.454H65.2827V6.972H66.8557V7.797H65.2827ZM70.8075 13.099C70.2429 13.099 69.7295 12.9707 69.2675 12.714C68.8129 12.4573 68.4535 12.0943 68.1895 11.625C67.9329 11.1483 67.8045 10.5983 67.8045 9.975C67.8045 9.359 67.9365 8.81633 68.2005 8.347C68.4719 7.87033 68.8385 7.50733 69.3005 7.258C69.7625 7.00133 70.2795 6.873 70.8515 6.873C71.4235 6.873 71.9405 7.00133 72.4025 7.258C72.8645 7.50733 73.2275 7.86667 73.4915 8.336C73.7629 8.80533 73.8985 9.35167 73.8985 9.975C73.8985 10.5983 73.7592 11.1483 73.4805 11.625C73.2092 12.0943 72.8389 12.4573 72.3695 12.714C71.9002 12.9707 71.3795 13.099 70.8075 13.099ZM70.8075 12.219C71.1669 12.219 71.5042 12.1347 71.8195 11.966C72.1349 11.7973 72.3879 11.5443 72.5785 11.207C72.7765 10.8697 72.8755 10.459 72.8755 9.975C72.8755 9.491 72.7802 9.08033 72.5895 8.743C72.3989 8.40567 72.1495 8.15633 71.8415 7.995C71.5335 7.82633 71.1999 7.742 70.8405 7.742C70.4739 7.742 70.1365 7.82633 69.8285 7.995C69.5279 8.15633 69.2859 8.40567 69.1025 8.743C68.9192 9.08033 68.8275 9.491 68.8275 9.975C68.8275 10.4663 68.9155 10.8807 69.0915 11.218C69.2749 11.5553 69.5169 11.8083 69.8175 11.977C70.1182 12.1383 70.4482 12.219 70.8075 12.219ZM76.3257 7.951C76.5017 7.60633 76.751 7.33867 77.0737 7.148C77.4037 6.95733 77.8033 6.862 78.2727 6.862V7.896H78.0087C76.8867 7.896 76.3257 8.50467 76.3257 9.722V13H75.3247V6.972H76.3257V7.951ZM85.0382 9.755C85.0382 9.94567 85.0272 10.1473 85.0052 10.36H80.1872C80.2238 10.954 80.4255 11.4197 80.7922 11.757C81.1662 12.087 81.6172 12.252 82.1452 12.252C82.5778 12.252 82.9372 12.153 83.2232 11.955C83.5165 11.7497 83.7218 11.4783 83.8392 11.141H84.9172C84.7558 11.7203 84.4332 12.1933 83.9492 12.56C83.4652 12.9193 82.8638 13.099 82.1452 13.099C81.5732 13.099 81.0598 12.9707 80.6052 12.714C80.1578 12.4573 79.8058 12.0943 79.5492 11.625C79.2925 11.1483 79.1642 10.5983 79.1642 9.975C79.1642 9.35167 79.2888 8.80533 79.5382 8.336C79.7875 7.86667 80.1358 7.50733 80.5832 7.258C81.0378 7.00133 81.5585 6.873 82.1452 6.873C82.7172 6.873 83.2232 6.99767 83.6632 7.247C84.1032 7.49633 84.4405 7.841 84.6752 8.281C84.9172 8.71367 85.0382 9.205 85.0382 9.755ZM84.0042 9.546C84.0042 9.16467 83.9198 8.83833 83.7512 8.567C83.5825 8.28833 83.3515 8.07933 83.0582 7.94C82.7722 7.79333 82.4532 7.72 82.1012 7.72C81.5952 7.72 81.1625 7.88133 80.8032 8.204C80.4512 8.52667 80.2495 8.974 80.1982 9.546H84.0042Z" fill="black"/>
<circle cx="97.5" cy="9.88464" r="1.5" fill="#8B9E9E"/>
<circle cx="9" cy="9" r="9"/>
</svg>
