<svg width="30" height="29" viewBox="0 0 30 29" fill="none" xmlns="http://www.w3.org/2000/svg">
<path d="M1.60254 8.38464L5.13093 9.03677C5.56045 9.11615 5.88874 9.46512 5.94179 9.89867L7.48598 22.5202C7.60871 23.5234 8.46054 24.2774 9.47118 24.2774H18.6321C19.6087 24.2774 20.4425 23.572 20.6044 22.6089L22.0185 14.1958C22.121 13.5859 21.6508 13.0301 21.0323 13.0301H6.34514" stroke="white" stroke-width="1.5" stroke-linecap="round"/>
<path d="M21.4272 17.6935H6.97852" stroke="white" stroke-width="1.5" stroke-linecap="round"/>
<circle cx="22.3301" cy="8.32031" r="7.5" fill="#FF5252"/>
<path d="M19.8021 9.66864V8.98064L22.4901 5.12464H23.5941V8.87664H24.3381V9.66864H23.5941V10.8846H22.6981V9.66864H19.8021ZM22.7381 6.05264L20.8501 8.87664H22.7381V6.05264Z" fill="white"/>
<circle cx="11.564" cy="27.5301" r="1.35457" fill="white"/>
<circle cx="16.1846" cy="27.5301" r="1.35457" fill="white"/>
</svg>
