<svg width="30" height="29" viewBox="0 0 30 29" fill="none" xmlns="http://www.w3.org/2000/svg">
<path d="M1.60254 8.38464L5.13093 9.03677C5.56045 9.11615 5.88874 9.46512 5.94179 9.89867L7.48598 22.5202C7.60871 23.5234 8.46054 24.2774 9.47118 24.2774H18.6321C19.6087 24.2774 20.4425 23.572 20.6044 22.6089L22.0185 14.1958C22.121 13.5859 21.6508 13.0301 21.0323 13.0301H6.34514" stroke="black" stroke-width="1.5" stroke-linecap="round"/>
<path d="M21.4272 17.6935H6.97852" stroke="black" stroke-width="1.5" stroke-linecap="round"/>
<circle cx="22.3301" cy="8.32031" r="7.5" fill="#FF5252"/>
<path d="M22.6981 10.8846H23.5941V9.66864H24.3381V8.87664H23.5941V5.12464H22.4901L19.8021 8.98064V9.66864H22.6981V10.8846ZM20.8501 8.87664L22.7381 6.05264V8.87664H20.8501Z" fill="white"/>
<circle cx="11.564" cy="27.5301" r="1.35457" fill="black"/>
<circle cx="16.1846" cy="27.5301" r="1.35457" fill="black"/>
</svg>
