<svg width="36" height="36" viewBox="0 0 36 36" fill="none" xmlns="http://www.w3.org/2000/svg">
<circle cx="18.1665" cy="18.1757" r="17.5" fill="white"/>
<path d="M16.6541 9.76039C17.4517 8.83866 18.8813 8.83866 19.6789 9.76039L20.4516 10.6534C20.8646 11.1306 21.4786 11.3849 22.108 11.3395L23.2859 11.2544C24.5016 11.1667 25.5125 12.1775 25.4247 13.3933L25.3397 14.5711C25.2942 15.2006 25.5485 15.8146 26.0258 16.2275L26.9188 17.0003C27.8405 17.7979 27.8405 19.2274 26.9188 20.025L26.0258 20.7977C25.5485 21.2107 25.2942 21.8247 25.3397 22.4541L25.4247 23.632C25.5125 24.8477 24.5016 25.8586 23.2859 25.7708L22.108 25.6858C21.4786 25.6403 20.8646 25.8947 20.4516 26.3719L19.6789 27.2649C18.8813 28.1866 17.4517 28.1866 16.6541 27.2649L15.8814 26.3719C15.4684 25.8947 14.8544 25.6403 14.225 25.6858L13.0471 25.7708C11.8314 25.8586 10.8205 24.8477 10.9083 23.632L10.9934 22.4541C11.0388 21.8247 10.7845 21.2107 10.3073 20.7977L9.41426 20.025C8.49253 19.2274 8.49253 17.7979 9.41426 17.0003L10.3073 16.2275C10.7845 15.8146 11.0388 15.2006 10.9934 14.5711L10.9083 13.3933C10.8205 12.1775 11.8314 11.1667 13.0471 11.2544L14.225 11.3395C14.8544 11.3849 15.4684 11.1306 15.8814 10.6534L16.6541 9.76039Z" fill="#FFB039"/>
<path d="M14.5806 17.1638C14.5806 16.6845 14.7167 16.3146 14.9889 16.0543C15.267 15.7939 15.625 15.6637 16.0629 15.6637C16.5008 15.6637 16.8558 15.7939 17.128 16.0543C17.4002 16.3146 17.5363 16.6845 17.5363 17.1638C17.5363 17.6431 17.4002 18.013 17.128 18.2733C16.8558 18.5337 16.5008 18.6639 16.0629 18.6639C15.625 18.6639 15.267 18.5337 14.9889 18.2733C14.7167 18.013 14.5806 17.6431 14.5806 17.1638ZM20.6075 15.7614L17.1902 22.0102H15.7256L19.1429 15.7614H20.6075ZM16.054 16.5513C15.77 16.5513 15.628 16.7555 15.628 17.1638C15.628 17.5662 15.77 17.7674 16.054 17.7674C16.1901 17.7674 16.2966 17.7171 16.3736 17.6165C16.4505 17.5159 16.489 17.365 16.489 17.1638C16.489 16.7555 16.344 16.5513 16.054 16.5513ZM18.8056 20.6078C18.8056 20.1285 18.9417 19.7586 19.214 19.4983C19.4862 19.2379 19.8412 19.1077 20.2791 19.1077C20.717 19.1077 21.072 19.2379 21.3442 19.4983C21.6164 19.7586 21.7525 20.1285 21.7525 20.6078C21.7525 21.0871 21.6164 21.4569 21.3442 21.7173C21.072 21.9777 20.717 22.1079 20.2791 22.1079C19.8412 22.1079 19.4862 21.9777 19.214 21.7173C18.9417 21.4569 18.8056 21.0871 18.8056 20.6078ZM20.2702 19.9953C20.1341 19.9953 20.0276 20.0456 19.9507 20.1462C19.8797 20.2468 19.8442 20.4007 19.8442 20.6078C19.8442 21.0102 19.9862 21.2114 20.2702 21.2114C20.4063 21.2114 20.5128 21.1611 20.5898 21.0605C20.6667 20.9599 20.7052 20.809 20.7052 20.6078C20.7052 20.4066 20.6667 20.2557 20.5898 20.1551C20.5128 20.0486 20.4063 19.9953 20.2702 19.9953Z" fill="white"/>
</svg>
