<svg width="36" height="36" viewBox="0 0 36 36" fill="none" xmlns="http://www.w3.org/2000/svg">
<circle cx="18.1665" cy="18.1757" r="17.5" fill="white"/>
<path d="M17.5467 8.61031C17.6303 8.17994 17.9846 7.85425 18.4204 7.80696L21.0838 7.51795C21.7534 7.44529 22.3018 8.04183 22.1733 8.70292L21.1807 13.8097C21.0753 14.3519 20.5504 14.7059 20.0082 14.6006L17.4959 14.1122C16.9538 14.0068 16.5997 13.4819 16.7051 12.9398L17.5467 8.61031Z" fill="#49B3FF"/>
<path d="M14.4787 14.9941C14.6895 13.9099 15.7393 13.2017 16.8236 13.4125L20.8939 14.2037C21.9782 14.4145 22.6863 15.4643 22.4755 16.5486L20.3543 27.4615C20.1435 28.5457 19.0937 29.2539 18.0094 29.0431L13.9391 28.2519C12.8548 28.0412 12.1467 26.9913 12.3575 25.907L14.4787 14.9941Z" fill="#AC72F7"/>
<path d="M22.0285 19.7354L14.0542 18.1854" stroke="white" stroke-width="1.5" stroke-linecap="round"/>
<path d="M21.2135 23.9279L13.2393 22.3778" stroke="white" stroke-width="1.5" stroke-linecap="round"/>
</svg>
