<svg width="36" height="36" viewBox="0 0 36 36" fill="none" xmlns="http://www.w3.org/2000/svg">
<circle cx="18.1665" cy="18.1757" r="17.5" fill="white"/>
<path d="M23.3009 17.6954C26.3577 21.3383 28.4785 26.6924 26.7617 28.133C25.0448 29.5736 20.1403 26.5553 17.0835 22.9124C14.0267 19.2694 12.773 15.6243 14.4899 14.1837C14.7509 13.9647 15.5793 13.2695 15.5793 13.2695C17.4266 11.7195 20.7088 14.6062 23.3009 17.6954Z" fill="#FF8933"/>
<path d="M21.5309 15.9619L19.1001 18.0016" stroke="white" stroke-width="1.5" stroke-linecap="round"/>
<path d="M20.5109 21.2549L18.0801 23.2946" stroke="white" stroke-width="1.5" stroke-linecap="round"/>
<path d="M25.8683 22.1313L23.4375 24.1709" stroke="white" stroke-width="1.5" stroke-linecap="round"/>
<path d="M16.8109 10.8643C16.5379 12.4126 14.6728 13.3779 14.6728 13.3779C14.6728 13.3779 13.2503 11.8329 13.5233 10.2846C13.7963 8.73636 15.6614 7.77108 15.6614 7.77108C15.6614 7.77108 17.0839 9.31606 16.8109 10.8643Z" fill="#02A894"/>
<path d="M12.4169 8.49248C13.4275 9.69683 12.968 11.7461 12.968 11.7461C12.968 11.7461 10.8702 11.8427 9.85958 10.6383C8.84901 9.43399 9.30845 7.38474 9.30845 7.38474C9.30845 7.38474 11.4063 7.28813 12.4169 8.49248Z" fill="#02A894"/>
<path d="M11.4839 15.3344C13.056 15.3344 14.3305 13.6652 14.3305 13.6652C14.3305 13.6652 13.056 11.996 11.4839 11.996C9.9117 11.996 8.63721 13.6652 8.63721 13.6652C8.63721 13.6652 9.9117 15.3344 11.4839 15.3344Z" fill="#02A894"/>
</svg>
