<svg width="25" height="26" viewBox="0 0 25 26" fill="none" xmlns="http://www.w3.org/2000/svg">
<path d="M22.1465 11.2849V22.8526C22.1465 24.0952 21.1391 25.1026 19.8965 25.1026H18.056C16.8134 25.1026 15.806 24.0952 15.806 22.8526V21.1286C15.806 19.1093 14.169 17.4723 12.1497 17.4723C10.1303 17.4723 8.49334 19.1093 8.49334 21.1286V22.8526C8.49334 24.0952 7.48598 25.1026 6.24334 25.1026H3.89649C2.65384 25.1026 1.64648 24.0952 1.64648 22.8526V11.2849C1.64648 10.2634 2.14152 9.30523 2.97466 8.71415L10.0726 3.67843C11.165 2.90341 12.6279 2.90341 13.7203 3.67843L20.8183 8.71415C21.6514 9.30523 22.1465 10.2634 22.1465 11.2849Z" stroke="#8B9E9E" stroke-width="1.5"/>
</svg>
