<svg width="25" height="26" viewBox="0 0 25 26" fill="none" xmlns="http://www.w3.org/2000/svg">
<path d="M22.8965 21.9912V11.4235C22.8965 10.159 22.2837 8.97279 21.2523 8.24107L14.1543 3.20535C12.802 2.24592 10.991 2.24592 9.63866 3.20535L2.54069 8.24107C1.50931 8.97279 0.896484 10.159 0.896484 11.4235V21.9912C0.896484 24.2003 2.68735 25.9912 4.89649 25.9912H7.24334C8.34791 25.9912 9.24334 25.0958 9.24334 23.9912V20.3609C9.24334 19.2563 10.1388 18.3609 11.2433 18.3609H13.056C14.1606 18.3609 15.056 19.2563 15.056 20.3609V23.9912C15.056 25.0958 15.9514 25.9912 17.056 25.9912H18.8965C21.1056 25.9912 22.8965 24.2003 22.8965 21.9912Z" fill="#FED393"/>
<path d="M22.1465 11.4235V21.9912C22.1465 23.7861 20.6914 25.2412 18.8965 25.2412H17.056C16.3657 25.2412 15.806 24.6815 15.806 23.9912V20.3609C15.806 18.8421 14.5748 17.6109 13.056 17.6109H11.2433C9.72455 17.6109 8.49334 18.8421 8.49334 20.3609V23.9912C8.49334 24.6815 7.93369 25.2412 7.24334 25.2412H4.89649C3.10156 25.2412 1.64648 23.7861 1.64648 21.9912V11.4235C1.64648 10.402 2.14152 9.44384 2.97466 8.85276L10.0726 3.81704C11.165 3.04203 12.6279 3.04202 13.7203 3.81704L20.8183 8.85276C21.6514 9.44384 22.1465 10.402 22.1465 11.4235Z" stroke="#E98E06" stroke-width="1.5"/>
</svg>
