<svg width="44" height="63" viewBox="0 0 44 63" fill="none" xmlns="http://www.w3.org/2000/svg">
<circle cx="22.1665" cy="18.1757" r="17.5" fill="white"/>
<path d="M21.5467 8.61031C21.6303 8.17994 21.9846 7.85425 22.4204 7.80696L25.0838 7.51795C25.7534 7.44529 26.3018 8.04183 26.1733 8.70292L25.1807 13.8097C25.0753 14.3519 24.5504 14.7059 24.0082 14.6006L21.4959 14.1122C20.9538 14.0068 20.5997 13.4819 20.7051 12.9398L21.5467 8.61031Z" fill="#49B3FF"/>
<path d="M18.4787 14.9941C18.6895 13.9099 19.7393 13.2017 20.8236 13.4125L24.8939 14.2037C25.9782 14.4145 26.6863 15.4643 26.4755 16.5486L24.3543 27.4615C24.1435 28.5457 23.0937 29.2539 22.0094 29.0431L17.9391 28.2519C16.8548 28.0412 16.1467 26.9913 16.3575 25.907L18.4787 14.9941Z" fill="#AC72F7"/>
<path d="M26.0285 19.7354L18.0542 18.1854" stroke="white" stroke-width="1.5" stroke-linecap="round"/>
<path d="M25.2135 23.9279L17.2393 22.3778" stroke="white" stroke-width="1.5" stroke-linecap="round"/>
<path d="M5.3841 53.0797C5.8561 53.1677 6.2561 53.4077 6.5841 53.7997C6.9121 54.1917 7.0761 54.6477 7.0761 55.1677C7.0761 55.5917 6.9681 55.9757 6.7521 56.3197C6.5441 56.6557 6.2361 56.9237 5.8281 57.1237C5.4201 57.3157 4.9321 57.4117 4.3641 57.4117H1.4601V49.0237H4.2801C5.1281 49.0237 5.7721 49.2197 6.2121 49.6117C6.6601 50.0037 6.8841 50.5117 6.8841 51.1357C6.8841 51.6557 6.7441 52.0797 6.4641 52.4077C6.1841 52.7277 5.8241 52.9517 5.3841 53.0797ZM2.3001 52.7317H4.2561C4.8241 52.7317 5.2601 52.5997 5.5641 52.3357C5.8761 52.0637 6.0321 51.6917 6.0321 51.2197C6.0321 50.7557 5.8761 50.3917 5.5641 50.1277C5.2601 49.8637 4.8121 49.7317 4.2201 49.7317H2.3001V52.7317ZM4.3041 56.7037C4.9121 56.7037 5.3841 56.5597 5.7201 56.2717C6.0641 55.9837 6.2361 55.5877 6.2361 55.0837C6.2361 54.5797 6.0561 54.1797 5.6961 53.8837C5.3441 53.5797 4.8681 53.4277 4.2681 53.4277H2.3001V56.7037H4.3041ZM14.7883 53.7997C14.7883 54.0877 14.7803 54.3077 14.7643 54.4597H9.32825C9.35225 54.9557 9.47225 55.3797 9.68825 55.7317C9.90425 56.0837 10.1883 56.3517 10.5403 56.5357C10.8923 56.7117 11.2763 56.7997 11.6923 56.7997C12.2363 56.7997 12.6923 56.6677 13.0603 56.4037C13.4363 56.1397 13.6843 55.7837 13.8043 55.3357H14.6923C14.5323 55.9757 14.1883 56.4997 13.6603 56.9077C13.1403 57.3077 12.4843 57.5077 11.6923 57.5077C11.0763 57.5077 10.5243 57.3717 10.0363 57.0997C9.54825 56.8197 9.16425 56.4277 8.88425 55.9237C8.61225 55.4117 8.47625 54.8157 8.47625 54.1357C8.47625 53.4557 8.61225 52.8597 8.88425 52.3477C9.15625 51.8357 9.53625 51.4437 10.0243 51.1717C10.5123 50.8997 11.0683 50.7637 11.6923 50.7637C12.3163 50.7637 12.8603 50.8997 13.3243 51.1717C13.7963 51.4437 14.1563 51.8117 14.4043 52.2757C14.6603 52.7317 14.7883 53.2397 14.7883 53.7997ZM13.9363 53.7757C13.9443 53.2877 13.8443 52.8717 13.6363 52.5277C13.4363 52.1837 13.1603 51.9237 12.8083 51.7477C12.4563 51.5717 12.0723 51.4837 11.6563 51.4837C11.0323 51.4837 10.5003 51.6837 10.0603 52.0837C9.62025 52.4837 9.37625 53.0477 9.32825 53.7757H13.9363ZM16.1811 54.1237C16.1811 53.4517 16.3131 52.8637 16.5771 52.3597C16.8491 51.8477 17.2211 51.4557 17.6931 51.1837C18.1731 50.9037 18.7131 50.7637 19.3131 50.7637C19.9371 50.7637 20.4731 50.9077 20.9211 51.1957C21.3771 51.4837 21.7051 51.8517 21.9051 52.2997V50.8597H22.7451V57.4117H21.9051V55.9597C21.6971 56.4077 21.3651 56.7797 20.9091 57.0757C20.4611 57.3637 19.9251 57.5077 19.3011 57.5077C18.7091 57.5077 18.1731 57.3677 17.6931 57.0877C17.2211 56.8077 16.8491 56.4117 16.5771 55.8997C16.3131 55.3877 16.1811 54.7957 16.1811 54.1237ZM21.9051 54.1357C21.9051 53.6077 21.7971 53.1437 21.5811 52.7437C21.3651 52.3437 21.0691 52.0357 20.6931 51.8197C20.3251 51.6037 19.9171 51.4957 19.4691 51.4957C19.0051 51.4957 18.5891 51.5997 18.2211 51.8077C17.8531 52.0157 17.5611 52.3197 17.3451 52.7197C17.1371 53.1117 17.0331 53.5797 17.0331 54.1237C17.0331 54.6597 17.1371 55.1317 17.3451 55.5397C17.5611 55.9397 17.8531 56.2477 18.2211 56.4637C18.5891 56.6717 19.0051 56.7757 19.4691 56.7757C19.9171 56.7757 20.3251 56.6677 20.6931 56.4517C21.0691 56.2357 21.3651 55.9277 21.5811 55.5277C21.7971 55.1277 21.9051 54.6637 21.9051 54.1357ZM30.5788 50.8597V57.4117H29.7388V56.2597C29.5468 56.6677 29.2508 56.9797 28.8508 57.1957C28.4508 57.4117 28.0028 57.5197 27.5068 57.5197C26.7228 57.5197 26.0828 57.2797 25.5868 56.7997C25.0908 56.3117 24.8428 55.6077 24.8428 54.6877V50.8597H25.6708V54.5917C25.6708 55.3037 25.8468 55.8477 26.1988 56.2237C26.5588 56.5997 27.0468 56.7877 27.6628 56.7877C28.2948 56.7877 28.7988 56.5877 29.1748 56.1877C29.5508 55.7877 29.7388 55.1997 29.7388 54.4237V50.8597H30.5788ZM33.8285 51.5677V55.6357C33.8285 56.0357 33.9045 56.3117 34.0565 56.4637C34.2085 56.6157 34.4765 56.6917 34.8605 56.6917H35.6285V57.4117H34.7285C34.1365 57.4117 33.6965 57.2757 33.4085 57.0037C33.1205 56.7237 32.9765 56.2677 32.9765 55.6357V51.5677H32.0645V50.8597H32.9765V49.2157H33.8285V50.8597H35.6285V51.5677H33.8285ZM42.6538 50.8597L38.7658 60.4957H37.8898L39.1618 57.3757L36.4738 50.8597H37.3978L39.6298 56.4517L41.7898 50.8597H42.6538Z" fill="black"/>
</svg>
