<svg width="107" height="22" viewBox="0 0 107 22" fill="none" xmlns="http://www.w3.org/2000/svg">
<path d="M0.215 21L3.671 0.642H8.909L12.986 11.496L17.036 0.642H22.274L25.73 21H20.465L18.71 9.282L13.904 21H11.798L7.235 9.282L5.48 21H0.215ZM32.9609 14.034C32.9609 14.484 33.0419 14.907 33.2039 15.303C33.3659 15.681 33.5819 16.014 33.8519 16.302C34.1399 16.59 34.4729 16.815 34.8509 16.977C35.2469 17.139 35.6699 17.22 36.1199 17.22C36.5519 17.22 36.9569 17.139 37.3349 16.977C37.7309 16.815 38.0639 16.59 38.3339 16.302C38.6219 16.014 38.8469 15.681 39.0089 15.303C39.1889 14.925 39.2789 14.52 39.2789 14.088C39.2789 13.656 39.1889 13.251 39.0089 12.873C38.8469 12.477 38.6219 12.135 38.3339 11.847C38.0639 11.559 37.7309 11.334 37.3349 11.172C36.9569 11.01 36.5519 10.929 36.1199 10.929C35.6699 10.929 35.2469 11.01 34.8509 11.172C34.4729 11.334 34.1399 11.559 33.8519 11.847C33.5819 12.135 33.3659 12.468 33.2039 12.846C33.0419 13.206 32.9609 13.602 32.9609 14.034ZM39.1169 7.149H44.0309V21H39.1169V19.461C38.0729 20.775 36.6599 21.432 34.8779 21.432C33.8699 21.432 32.9429 21.252 32.0969 20.892C31.2509 20.514 30.5129 19.992 29.8829 19.326C29.2529 18.66 28.7579 17.877 28.3979 16.977C28.0559 16.077 27.8849 15.096 27.8849 14.034C27.8849 13.044 28.0559 12.108 28.3979 11.226C28.7399 10.326 29.2169 9.543 29.8289 8.877C30.4409 8.211 31.1699 7.689 32.0159 7.311C32.8619 6.915 33.7979 6.717 34.8239 6.717C36.5519 6.717 37.9829 7.32 39.1169 8.526V7.149ZM57.0766 10.713C56.1766 10.245 55.2946 10.011 54.4306 10.011C53.9806 10.011 53.6116 10.101 53.3236 10.281C53.0536 10.461 52.9186 10.704 52.9186 11.01C52.9186 11.172 52.9366 11.307 52.9726 11.415C53.0266 11.505 53.1256 11.595 53.2696 11.685C53.4316 11.775 53.6566 11.856 53.9446 11.928C54.2506 12 54.6466 12.09 55.1326 12.198C56.4826 12.468 57.4906 12.954 58.1566 13.656C58.8226 14.34 59.1556 15.222 59.1556 16.302C59.1556 17.112 58.9936 17.841 58.6696 18.489C58.3456 19.137 57.8956 19.686 57.3196 20.136C56.7436 20.568 56.0506 20.901 55.2406 21.135C54.4306 21.387 53.5396 21.513 52.5676 21.513C50.6956 21.513 48.8506 20.982 47.0326 19.92L48.8146 16.464C50.1826 17.4 51.4786 17.868 52.7026 17.868C53.1526 17.868 53.5216 17.769 53.8096 17.571C54.0976 17.373 54.2416 17.121 54.2416 16.815C54.2416 16.635 54.2146 16.491 54.1606 16.383C54.1246 16.257 54.0346 16.149 53.8906 16.059C53.7466 15.951 53.5306 15.861 53.2426 15.789C52.9726 15.699 52.6126 15.609 52.1626 15.519C50.6506 15.213 49.5886 14.763 48.9766 14.169C48.3826 13.557 48.0856 12.72 48.0856 11.658C48.0856 10.884 48.2296 10.191 48.5176 9.579C48.8056 8.949 49.2196 8.418 49.7596 7.986C50.2996 7.554 50.9476 7.221 51.7036 6.987C52.4776 6.753 53.3326 6.636 54.2686 6.636C55.7986 6.636 57.2836 6.933 58.7236 7.527L57.0766 10.713Z" fill="#06AB8D"/>
<path d="M71.3539 10.713C70.4539 10.245 69.5719 10.011 68.7079 10.011C68.2579 10.011 67.8889 10.101 67.6009 10.281C67.3309 10.461 67.1959 10.704 67.1959 11.01C67.1959 11.172 67.2139 11.307 67.2499 11.415C67.3039 11.505 67.4029 11.595 67.5469 11.685C67.7089 11.775 67.9339 11.856 68.2219 11.928C68.5279 12 68.9239 12.09 69.4099 12.198C70.7599 12.468 71.7679 12.954 72.4339 13.656C73.0999 14.34 73.4329 15.222 73.4329 16.302C73.4329 17.112 73.2709 17.841 72.9469 18.489C72.6229 19.137 72.1729 19.686 71.5969 20.136C71.0209 20.568 70.3279 20.901 69.5179 21.135C68.7079 21.387 67.8169 21.513 66.8449 21.513C64.9729 21.513 63.1279 20.982 61.3099 19.92L63.0919 16.464C64.4599 17.4 65.7559 17.868 66.9799 17.868C67.4299 17.868 67.7989 17.769 68.0869 17.571C68.3749 17.373 68.5189 17.121 68.5189 16.815C68.5189 16.635 68.4919 16.491 68.4379 16.383C68.4019 16.257 68.3119 16.149 68.1679 16.059C68.0239 15.951 67.8079 15.861 67.5199 15.789C67.2499 15.699 66.8899 15.609 66.4399 15.519C64.9279 15.213 63.8659 14.763 63.2539 14.169C62.6599 13.557 62.3629 12.72 62.3629 11.658C62.3629 10.884 62.5069 10.191 62.7949 9.579C63.0829 8.949 63.4969 8.418 64.0369 7.986C64.5769 7.554 65.2249 7.221 65.9809 6.987C66.7549 6.753 67.6099 6.636 68.5459 6.636C70.0759 6.636 71.5609 6.933 73.0009 7.527L71.3539 10.713ZM80.9872 14.034C80.9872 14.484 81.0682 14.907 81.2302 15.303C81.3922 15.681 81.6082 16.014 81.8782 16.302C82.1662 16.59 82.4992 16.815 82.8772 16.977C83.2732 17.139 83.6962 17.22 84.1462 17.22C84.5782 17.22 84.9832 17.139 85.3612 16.977C85.7572 16.815 86.0902 16.59 86.3602 16.302C86.6482 16.014 86.8732 15.681 87.0352 15.303C87.2152 14.925 87.3052 14.52 87.3052 14.088C87.3052 13.656 87.2152 13.251 87.0352 12.873C86.8732 12.477 86.6482 12.135 86.3602 11.847C86.0902 11.559 85.7572 11.334 85.3612 11.172C84.9832 11.01 84.5782 10.929 84.1462 10.929C83.6962 10.929 83.2732 11.01 82.8772 11.172C82.4992 11.334 82.1662 11.559 81.8782 11.847C81.6082 12.135 81.3922 12.468 81.2302 12.846C81.0682 13.206 80.9872 13.602 80.9872 14.034ZM87.1432 7.149H92.0572V21H87.1432V19.461C86.0992 20.775 84.6862 21.432 82.9042 21.432C81.8962 21.432 80.9692 21.252 80.1232 20.892C79.2772 20.514 78.5392 19.992 77.9092 19.326C77.2792 18.66 76.7842 17.877 76.4242 16.977C76.0822 16.077 75.9112 15.096 75.9112 14.034C75.9112 13.044 76.0822 12.108 76.4242 11.226C76.7662 10.326 77.2432 9.543 77.8552 8.877C78.4672 8.211 79.1962 7.689 80.0422 7.311C80.8882 6.915 81.8242 6.717 82.8502 6.717C84.5782 6.717 86.0092 7.32 87.1432 8.526V7.149ZM95.9228 7.149H100.81V9.417C101.332 8.589 101.971 7.959 102.727 7.527C103.483 7.077 104.365 6.852 105.373 6.852C105.499 6.852 105.634 6.852 105.778 6.852C105.94 6.852 106.12 6.87 106.318 6.906V11.577C105.67 11.253 104.968 11.091 104.212 11.091C103.078 11.091 102.223 11.433 101.647 12.117C101.089 12.783 100.81 13.764 100.81 15.06V21H95.9228V7.149Z" fill="#FFB039"/>
</svg>
