<svg width="24" height="31" viewBox="0 0 24 31" fill="none" xmlns="http://www.w3.org/2000/svg">
<path d="M4.0522 16.208C4.0522 13.4279 6.30593 11.1741 9.08605 11.1741V11.1741C11.8662 11.1741 14.1199 13.4279 14.1199 16.208V18.4953C14.1199 20.019 14.5003 21.5186 15.2267 22.8581L16.8604 25.8705C17.0242 26.1724 16.8056 26.5397 16.4621 26.5397H1.71003C1.36652 26.5397 1.1479 26.1724 1.31166 25.8705L2.94535 22.8581C3.67175 21.5186 4.0522 20.019 4.0522 18.4953V16.208Z" stroke="white" stroke-width="1.5"/>
<circle cx="15.896" cy="7.82031" r="7.5" fill="#FF5252"/>
<path d="M14.984 9.14464C15.496 8.70198 15.8987 8.33931 16.192 8.05664C16.4907 7.76864 16.7387 7.46998 16.936 7.16064C17.1333 6.85131 17.232 6.54198 17.232 6.23264C17.232 5.91264 17.1547 5.66198 17 5.48064C16.8507 5.29931 16.6133 5.20864 16.288 5.20864C15.9733 5.20864 15.728 5.30998 15.552 5.51264C15.3813 5.70998 15.2907 5.97664 15.28 6.31264H14.4C14.416 5.70464 14.5973 5.24064 14.944 4.92064C15.296 4.59531 15.7413 4.43264 16.28 4.43264C16.8613 4.43264 17.3147 4.59264 17.64 4.91264C17.9707 5.23264 18.136 5.65931 18.136 6.19264C18.136 6.57664 18.0373 6.94731 17.84 7.30464C17.648 7.65664 17.416 7.97398 17.144 8.25664C16.8773 8.53398 16.536 8.85664 16.12 9.22464L15.76 9.54464H18.296V10.3046H14.408V9.64064L14.984 9.14464Z" fill="white"/>
<path d="M11.6978 26.8756C11.6978 28.4074 10.4561 29.6491 8.92434 29.6491C7.3926 29.6491 6.15088 28.4074 6.15088 26.8756" stroke="white" stroke-width="1.5"/>
</svg>
