<svg width="24" height="31" viewBox="0 0 24 31" fill="none" xmlns="http://www.w3.org/2000/svg">
<path d="M4.0522 16.208C4.0522 13.4279 6.30593 11.1741 9.08605 11.1741V11.1741C11.8662 11.1741 14.1199 13.4279 14.1199 16.208V18.4953C14.1199 20.019 14.5003 21.5186 15.2267 22.8581L16.8604 25.8705C17.0242 26.1724 16.8056 26.5397 16.4621 26.5397H1.71003C1.36652 26.5397 1.1479 26.1724 1.31166 25.8705L2.94535 22.8581C3.67175 21.5186 4.0522 20.019 4.0522 18.4953V16.208Z" stroke="black" stroke-width="1.5"/>
<circle cx="15.896" cy="7.82031" r="7.5" fill="#FF5252"/>
<path d="M14.408 10.3046H18.296V9.54464H15.76C16.696 8.68864 18.136 7.60864 18.136 6.19264C18.136 5.14464 17.464 4.43264 16.28 4.43264C15.248 4.43264 14.432 5.04864 14.4 6.31264H15.28C15.304 5.65664 15.648 5.20864 16.288 5.20864C16.968 5.20864 17.232 5.62464 17.232 6.23264C17.232 7.37664 15.784 8.43264 14.408 9.64064V10.3046Z" fill="white"/>
<path d="M11.698 26.8756C11.698 28.4074 10.4563 29.6491 8.92458 29.6491C7.39284 29.6491 6.15112 28.4074 6.15112 26.8756" stroke="black" stroke-width="1.5"/>
</svg>
